<svg xmlns="http://www.w3.org/2000/svg" viewBox="0 0 24 24" class="design-iconfont">
  <defs>
    <filter color-interpolation-filters="auto" id="w8ug6lz0va">
      <feColorMatrix in="SourceGraphic" values="0 0 0 0 0.125490 0 0 0 0 0.419608 0 0 0 0 0.929412 0 0 0 1.000000 0"/>
    </filter>
  </defs>
  <g filter="url(#w8ug6lz0va)" fill="none" fill-rule="evenodd">
    <path d="M12,20.9 L16.95,15.95 C19.6834648,13.2162562 19.6833141,8.78423123 16.9496633,6.05067343 C14.2160125,3.31711563 9.7839875,3.31711563 7.05033671,6.05067343 C4.31668593,8.78423123 4.31653518,13.2162562 7.05,15.95 L12,20.9 Z M12,23.728 L5.636,17.364 C2.12131304,13.84927 2.12133631,8.15080522 5.63605196,4.63610392 C9.15076761,1.12140261 14.8492324,1.12140261 18.363948,4.63610392 C21.8786637,8.15080522 21.878687,13.84927 18.364,17.364 L12,23.728 L12,23.728 Z M12,13 C13.1045695,13 14,12.1045695 14,11 C14,9.8954305 13.1045695,9 12,9 C10.8954305,9 10,9.8954305 10,11 C10,12.1045695 10.8954305,13 12,13 Z M12,15 C9.790861,15 8,13.209139 8,11 C8,8.790861 9.790861,7 12,7 C14.209139,7 16,8.790861 16,11 C16,13.209139 14.209139,15 12,15 Z" fill="#FFF" fill-rule="nonzero"/>
  </g>
</svg>
