<svg xmlns="http://www.w3.org/2000/svg" xmlns:xlink="http://www.w3.org/1999/xlink" viewBox="0 0 40 40" class="design-iconfont">
  <defs>
    <filter x="-15%" y="-15%" width="130%" height="130%" id="ttqp97nitb">
      <feOffset in="SourceAlpha" result="shadowOffsetOuter1"/>
      <feGaussianBlur stdDeviation="2" in="shadowOffsetOuter1" result="shadowBlurOuter1"/>
      <feColorMatrix values="0 0 0 0 0.707853403 0 0 0 0 0.427225131 0 0 0 0 0.8 0 0 0 0.201805275 0" in="shadowBlurOuter1"/>
    </filter>
    <path d="M20,0 C31.045695,-2.02906125e-15 40,8.954305 40,20 C40,31.045695 31.045695,40 20,40 C8.954305,40 1.3527075e-15,31.045695 0,20 C-1.3527075e-15,8.954305 8.954305,2.02906125e-15 20,0 Z M29.7571957,12.8167921 C29.6538256,12.7147041 29.476778,12.7079128 29.3629122,12.8027723 L29.3629122,12.8027723 L17.2970116,22.8546433 C17.1841054,22.9487033 16.9960222,22.9537297 16.8790593,22.8640844 L16.8790593,22.8640844 L11.9839591,19.1122709 C11.8690348,19.0241879 11.7008363,19.0470287 11.6128304,19.1667767 L11.6128304,19.1667767 L10.8515879,20.2025846 C10.7630969,20.3229926 10.7748808,20.5049378 10.8768247,20.6104446 L10.8768247,20.6104446 L16.9058562,26.8501933 C17.0072048,26.9550841 17.1762546,26.9567776 17.2821102,26.8525999 L17.2821102,26.8525999 L30.4573563,13.8861897 C30.5624422,13.7827695 30.5648044,13.6143837 30.4609135,13.5117814 L30.4609135,13.5117814 Z" id="rrhbtxrbua"/>
  </defs>
  <g fill="none" fill-rule="evenodd">
    <use fill="#000" filter="url(#ttqp97nitb)" xlink:href="#rrhbtxrbua"/>
    <use fill="#206BED" xlink:href="#rrhbtxrbua"/>
  </g>
</svg>
