<svg xmlns="http://www.w3.org/2000/svg" viewBox="0 0 24 24" class="design-iconfont">
  <g fill="none" fill-rule="evenodd">
    <path fill-opacity=".01" fill="#FFF" fill-rule="nonzero" d="M0 0H24V24H0z"/>
    <path d="M8.49815,3.842915 C8.8614,3.842915 9.1961,4.039925 9.37245,4.357545 L10.59565,6.56095 C10.7558,6.84945 10.76335,7.1984 10.61575,7.49355 L9.43735,9.8504 C9.43735,9.8504 9.77885,11.6061 11.20805,13.0353 C12.6373,14.4645 14.3871,14.8001 14.3871,14.8001 L16.74355,13.6219 C17.0389,13.4742 17.3881,13.48185 17.6767,13.6423 L19.88635,14.8708 C20.2037,15.04725 20.40045,15.38175 20.40045,15.7448 L20.40045,18.28155 C20.40045,19.5734 19.2005,20.50645 17.9765,20.0934 C15.4625,19.24515 11.56015,17.63005 9.08675,15.1566 C6.61335,12.6832 4.998215,8.78085 4.149945,6.2669 C3.736935,5.04285 4.66998,3.842915 5.9618,3.842915 L8.49815,3.842915 Z" stroke="#206BED" stroke-width="2"/>
  </g>
</svg>
